<svg id="deltasvgnya" xmlns="http://www.w3.org/2000/svg" width="1006" height="756" viewBox="0 0 10060 7560"><g id="DELTASVG" fill="rgb(200,80,80)"><path id="DELTA" d="M9522 7199 c-38 -15 -57 -29 -64 -47 -8 -18 -14 -191 -18 -527 -6 -474 -7 -504 -28 -571 -12 -40 -27 -83 -33 -97 -15 -32 -76 -83 -169 -139 -79 -48 -414 -219 -465 -238 -16 -6 -59 -28 -95 -49 -36 -21 -98 -47 -138 -57 -86 -21 -112 -13 -146 46 -20 34 -21 54 -28 665 -3 347 -11 662 -16 700 -10 76 -55 208 -72 213 -5 2 -28 19 -51 38 -47 39 -85 48 -183 42 -123 -8 -209 -76 -240 -191 -48 -181 -46 -139 -46 -1181 0 -956 0 -981 21 -1067 22 -95 40 -119 89 -119 42 0 98 -20 127 -44 19 -16 29 -38 36 -77 5 -30 12 -279 16 -554 6 -499 6 -500 31 -570 22 -62 28 -70 53 -73 20 -2 44 8 81 33 48 33 445 425 492 485 11 14 67 70 125 125 58 55 135 134 171 175 36 41 83 88 105 104 21 16 57 54 80 85 23 31 75 93 116 138 49 55 90 113 122 175 46 90 48 96 57 218 6 69 8 217 5 330 -9 313 6 386 99 492 115 131 146 169 159 202 13 30 15 134 15 650 0 338 -3 621 -6 630 -8 20 -105 76 -130 75 -11 0 -43 -9 -72 -20z m-423 -1885 c44 -31 51 -69 51 -279 0 -186 -1 -201 -26 -273 -37 -110 -88 -198 -153 -264 -31 -32 -65 -67 -76 -78 -11 -12 -69 -65 -129 -118 -206 -183 -296 -252 -331 -252 -27 0 -71 48 -83 88 -4 15 -7 164 -7 332 l0 305 39 81 c26 56 55 98 90 132 53 52 184 141 277 187 30 15 72 41 94 57 134 98 200 119 254 82z"></path><path id="DELTAUWU" d="M373 7173 c-28 -5 -88 -89 -102 -140 -14 -54 -17 -1923 -2 -1983 19 -83 61 -173 104 -229 24 -31 50 -67 56 -81 7 -14 38 -51 70 -82 31 -32 70 -72 87 -90 17 -18 40 -42 52 -53 12 -11 61 -61 109 -111 49 -51 147 -152 219 -225 71 -74 166 -172 211 -219 44 -47 93 -97 109 -111 60 -53 518 -529 542 -564 14 -19 40 -45 58 -56 18 -11 42 -35 53 -52 31 -50 184 -167 218 -167 26 0 52 20 70 53 17 30 18 139 21 1907 1 1105 -1 1902 -7 1942 -5 36 -21 93 -36 126 -23 52 -35 66 -89 99 l-61 38 -830 1 c-456 1 -840 0 -852 -3z m975 -398 c78 -8 336 -60 417 -85 85 -27 123 -63 155 -145 33 -87 36 -240 30 -1535 l-5 -1115 -30 -55 c-20 -37 -37 -56 -52 -58 -25 -4 -133 71 -203 141 -46 46 -167 153 -281 247 -69 57 -203 179 -339 311 -47 45 -114 105 -150 134 -95 77 -201 191 -242 260 -20 33 -48 96 -63 139 -26 77 -27 86 -23 250 5 228 13 240 150 241 65 0 81 3 99 21 39 40 43 95 44 624 l0 505 27 52 c30 57 37 63 82 74 31 7 281 3 384 -6z"></path><path id="nyaaa" d="M2821 7139 c-63 -32 -111 -81 -111 -115 0 -11 -9 -38 -21 -59 -48 -94 -49 -116 -49 -2105 0 -1025 5 -1918 10 -1995 6 -95 19 -181 40 -269 44 -184 108 -301 232 -427 35 -35 146 -152 248 -258 102 -107 239 -249 305 -315 66 -67 203 -209 305 -316 308 -325 335 -348 387 -329 50 18 58 50 61 240 5 215 -6 292 -55 395 -43 91 -108 172 -210 258 -171 146 -284 245 -362 320 -46 45 -107 104 -135 131 -28 28 -78 70 -110 95 -89 69 -245 244 -300 338 -76 130 -78 146 -83 625 -5 434 1 533 35 592 23 38 76 54 115 34 29 -15 191 -117 244 -152 18 -12 79 -49 138 -82 175 -100 330 -199 375 -240 33 -31 218 -125 244 -125 30 0 63 25 83 63 14 26 18 66 21 210 4 196 -6 284 -42 362 -38 82 -90 132 -185 180 -47 24 -115 58 -151 77 -36 18 -85 42 -110 54 -25 12 -63 30 -85 42 -22 11 -65 32 -95 46 -121 55 -264 197 -275 274 -3 20 -12 66 -22 102 -22 88 -31 286 -33 785 -1 428 6 586 34 709 21 91 34 116 76 144 34 23 40 23 200 19 189 -5 321 -19 433 -48 69 -17 81 -18 111 -5 50 21 113 82 128 124 18 51 18 410 0 470 -15 51 -71 116 -122 142 -70 36 -140 40 -680 40 l-527 0 -62 -31z"></path><path id="OWOWOWO" d="M6629 7142 c-66 -39 -78 -50 -104 -101 -29 -59 -70 -237 -84 -366 -8 -68 -11 -729 -11 -2075 -1 -2118 -2 -2189 -50 -2330 -37 -110 -92 -173 -499 -562 -44 -42 -87 -90 -95 -107 -9 -17 -27 -46 -40 -66 -51 -75 -77 -182 -87 -359 -13 -241 6 -326 73 -326 46 0 120 52 223 156 295 299 462 469 530 544 43 47 93 96 112 110 18 14 53 50 79 80 55 66 449 474 588 609 54 53 135 143 179 201 106 138 138 228 144 400 5 149 -1 164 -78 168 -52 3 -59 0 -120 -45 -36 -26 -141 -118 -233 -203 -160 -147 -265 -230 -290 -230 -20 0 -56 30 -74 63 -16 29 -17 77 -17 562 0 451 2 534 15 558 8 15 58 98 110 185 52 86 100 179 107 207 10 39 13 316 13 1330 0 1368 -2 1429 -48 1492 -43 59 -109 115 -148 124 -75 17 -145 10 -195 -19z"></path><path id="UWUWUWU" d="M4995 7140 c-22 -5 -76 -9 -119 -9 -156 -2 -212 -58 -264 -266 -17 -66 -33 -154 -36 -195 -9 -114 -11 -5885 -2 -5965 4 -38 16 -97 26 -130 11 -33 22 -82 26 -110 15 -110 111 -240 170 -233 50 6 65 43 69 164 2 60 9 125 15 144 7 23 10 368 10 1031 0 1115 -4 1050 73 1156 60 82 111 168 140 239 50 118 52 172 52 1474 0 895 3 1217 12 1250 7 25 12 79 12 120 0 41 5 102 11 135 5 33 10 75 10 93 0 19 16 70 36 115 32 71 44 87 90 119 46 33 66 40 153 53 56 8 130 15 165 15 58 0 205 25 281 48 65 20 126 56 163 97 l40 42 7 109 c9 128 -1 394 -16 427 -5 12 -29 36 -52 52 l-42 30 -495 1 c-272 1 -513 -2 -535 -6z"></path></g></svg>
