<svg width="400" height="300" viewBox="0 0 400 300" fill="none" xmlns="http://www.w3.org/2000/svg">
<path d="M377.857 285.675C376.349 285.079 375.595 284.524 375.318 283.81C375 283.095 374.762 276.23 374.603 262.897C374.365 244.087 374.325 242.897 373.492 240.238C373.016 238.651 372.421 236.944 372.183 236.389C371.587 235.119 369.167 233.095 365.476 230.873C362.341 228.968 349.048 222.183 347.024 221.429C346.389 221.19 344.683 220.317 343.254 219.484C341.825 218.651 339.365 217.619 337.778 217.222C334.365 216.389 333.333 216.706 331.984 219.048C331.19 220.397 331.151 221.19 330.873 245.437C330.754 259.206 330.437 271.706 330.238 273.214C329.841 276.23 328.056 281.468 327.381 281.667C327.183 281.746 326.27 282.421 325.357 283.175C323.492 284.722 321.984 285.079 318.095 284.841C313.214 284.524 309.802 281.825 308.571 277.262C306.667 270.079 306.746 271.746 306.746 230.397C306.746 192.46 306.746 191.468 307.579 188.056C308.452 184.286 309.167 183.333 311.111 183.333C312.778 183.333 315 182.54 316.151 181.587C316.905 180.952 317.302 180.079 317.579 178.532C317.778 177.341 318.056 167.46 318.214 156.548C318.452 136.746 318.452 136.706 319.444 133.929C320.317 131.468 320.556 131.151 321.548 131.032C322.341 130.952 323.294 131.349 324.762 132.341C326.667 133.651 342.421 149.206 344.286 151.587C344.722 152.143 346.944 154.365 349.246 156.548C351.548 158.73 354.603 161.865 356.032 163.492C357.46 165.119 359.325 166.984 360.198 167.619C361.032 168.254 362.46 169.762 363.373 170.992C364.286 172.222 366.349 174.683 367.976 176.468C369.921 178.651 371.548 180.952 372.818 183.413C374.643 186.984 374.722 187.222 375.079 192.064C375.318 194.802 375.397 200.675 375.278 205.159C374.921 217.579 375.516 220.476 379.206 224.683C383.77 229.881 385 231.389 385.516 232.698C386.032 233.889 386.111 238.016 386.111 258.492C386.111 271.905 385.992 283.135 385.873 283.492C385.556 284.286 381.706 286.508 380.714 286.468C380.278 286.468 379.008 286.111 377.857 285.675ZM361.071 210.873C362.818 209.643 363.095 208.135 363.095 199.802C363.095 192.421 363.056 191.825 362.064 188.968C360.595 184.603 358.571 181.111 355.992 178.492C354.762 177.222 353.413 175.833 352.976 175.397C352.54 174.921 350.238 172.817 347.857 170.714C339.683 163.452 336.111 160.714 334.722 160.714C333.651 160.714 331.905 162.619 331.429 164.206C331.27 164.802 331.151 170.714 331.151 177.381V189.484L332.698 192.698C333.73 194.921 334.881 196.587 336.27 197.937C338.373 200 343.571 203.532 347.262 205.357C348.452 205.952 350.119 206.984 350.992 207.619C356.31 211.508 358.929 212.341 361.071 210.873Z" fill="url(#paint0_linear)"/>
<path d="M14.8016 284.643C13.6905 284.444 11.3095 281.111 10.754 279.087C10.1984 276.944 10.0794 202.778 10.6746 200.397C11.4286 197.103 13.0952 193.532 14.8016 191.31C15.754 190.079 16.7857 188.651 17.0238 188.095C17.3016 187.54 18.5318 186.071 19.8016 184.841C21.0318 183.571 22.5794 181.984 23.254 181.27C23.9286 180.556 24.8413 179.603 25.3175 179.167C25.7937 178.73 27.7381 176.746 29.6429 174.762C31.5873 172.738 35.4762 168.73 38.3333 165.833C41.1508 162.897 44.9206 159.008 46.7064 157.143C48.4524 155.278 50.3968 153.294 51.0318 152.738C53.4127 150.635 71.5873 131.746 72.5397 130.357C73.0953 129.603 74.127 128.571 74.8413 128.135C75.5556 127.698 76.5079 126.746 76.9445 126.071C78.1746 124.087 84.246 119.444 85.5953 119.444C86.627 119.444 87.6587 120.238 88.373 121.548C89.0476 122.738 89.0873 127.064 89.2064 197.222C89.246 241.071 89.1667 272.698 88.9286 274.286C88.7302 275.714 88.0953 277.976 87.5 279.286C86.5873 281.349 86.1111 281.905 83.9683 283.214L81.5476 284.722L48.6111 284.762C30.5159 284.802 15.2778 284.762 14.8016 284.643ZM53.4921 268.849C56.5873 268.532 66.8254 266.468 70.0397 265.476C73.4127 264.405 74.9206 262.976 76.1905 259.722C77.5 256.27 77.6191 250.198 77.381 198.81L77.1826 154.563L75.9921 152.381C75.1984 150.913 74.5238 150.159 73.9286 150.079C72.9365 149.921 68.6508 152.897 65.873 155.675C64.0476 157.5 59.246 161.746 54.7222 165.476C51.9841 167.738 46.6667 172.579 41.2698 177.817C39.4048 179.603 36.746 181.984 35.3175 183.135C31.5476 186.19 27.3413 190.714 25.7143 193.452C24.9206 194.762 23.8095 197.262 23.2143 198.968C22.1825 202.024 22.1429 202.381 22.3016 208.889C22.5 217.937 22.8175 218.413 28.254 218.452C30.8333 218.452 31.4683 218.571 32.1825 219.286C33.7302 220.873 33.8889 223.056 33.9286 244.048V264.087L35 266.151C36.1905 268.413 36.4683 268.651 38.254 269.087C39.4841 269.365 49.4048 269.206 53.4921 268.849Z" fill="url(#paint1_linear)"/>
<path d="M111.944 283.294C109.444 282.024 107.54 280.079 107.54 278.73C107.54 278.294 107.183 277.222 106.706 276.389C104.802 272.659 104.762 271.786 104.762 192.857C104.762 152.183 104.96 116.746 105.159 113.69C105.397 109.921 105.913 106.508 106.746 103.016C108.492 95.7143 111.032 91.0714 115.952 86.0714C117.341 84.6825 121.746 80.0397 125.794 75.8333C129.841 71.5873 135.278 65.9524 137.897 63.3333C140.516 60.6746 145.952 55.0397 150 50.7936C162.222 37.8968 163.294 36.9841 165.357 37.7381C167.341 38.4524 167.659 39.7222 167.778 47.2619C167.976 55.7936 167.54 58.8492 165.595 62.9365C163.889 66.5476 161.31 69.7619 157.262 73.1746C150.476 78.9682 145.992 82.8968 142.897 85.873C141.071 87.6587 138.651 90 137.54 91.0714C136.429 92.1825 134.444 93.8492 133.175 94.8413C129.643 97.5794 123.452 104.524 121.27 108.254C118.254 113.413 118.175 114.048 117.976 133.056C117.778 150.278 118.016 154.206 119.365 156.548C120.278 158.056 122.381 158.69 123.929 157.897C125.079 157.302 131.508 153.254 133.611 151.865C134.325 151.389 136.746 149.921 139.087 148.611C146.032 144.643 152.183 140.714 153.968 139.087C155.278 137.857 162.619 134.127 163.651 134.127C164.841 134.127 166.151 135.119 166.944 136.627C167.5 137.659 167.659 139.246 167.778 144.96C167.936 152.738 167.54 156.23 166.111 159.325C164.603 162.579 162.54 164.563 158.77 166.468C156.905 167.421 154.206 168.77 152.778 169.524C151.349 170.238 149.405 171.19 148.413 171.667C147.421 172.143 145.913 172.857 145.04 173.333C144.167 173.77 142.46 174.603 141.27 175.159C136.468 177.341 130.794 182.976 130.357 186.032C130.238 186.825 129.881 188.651 129.484 190.079C128.611 193.571 128.254 201.429 128.175 221.23C128.135 238.214 128.413 244.484 129.524 249.365C130.357 252.976 130.873 253.968 132.54 255.079C133.889 255.992 134.127 255.992 140.476 255.833C147.976 255.635 153.214 255.079 157.659 253.929C160.397 253.254 160.873 253.214 162.063 253.73C164.048 254.563 166.548 256.984 167.143 258.651C167.857 260.675 167.857 274.921 167.143 277.302C166.548 279.325 164.325 281.905 162.302 282.936C159.524 284.365 156.746 284.524 135.317 284.524H114.405L111.944 283.294Z" fill="url(#paint2_linear)"/>
<path d="M263.056 283.413C260.437 281.865 259.96 281.429 258.929 279.405C257.778 277.063 256.151 270 255.595 264.881C255.278 262.183 255.159 235.952 255.159 182.54C255.119 98.4921 255.079 95.6746 253.175 90.0794C251.706 85.7143 249.524 83.2143 233.373 67.7778C231.627 66.1111 229.921 64.2063 229.603 63.5317C229.246 62.8571 228.532 61.7064 228.016 60.9127C225.992 57.9365 224.96 53.6905 224.563 46.6667C224.048 37.1032 224.802 33.7302 227.46 33.7302C229.286 33.7302 232.222 35.7937 236.31 39.9206C248.016 51.7857 254.643 58.5317 257.341 61.5079C259.048 63.373 261.032 65.3175 261.786 65.873C262.5 66.4286 263.889 67.8571 264.921 69.0476C267.103 71.6667 282.738 87.8571 288.254 93.2143C290.397 95.3175 293.611 98.8889 295.357 101.19C299.564 106.667 300.833 110.238 301.071 117.063C301.27 122.976 301.032 123.571 297.976 123.73C295.913 123.849 295.635 123.73 293.214 121.944C291.786 120.913 287.619 117.262 283.968 113.889C277.619 108.056 273.452 104.762 272.46 104.762C271.667 104.762 270.238 105.952 269.524 107.262C268.889 108.413 268.849 110.317 268.849 129.563C268.849 147.46 268.929 150.754 269.444 151.706C269.762 152.302 271.746 155.595 273.81 159.048C275.873 162.46 277.778 166.151 278.056 167.262C278.452 168.81 278.571 179.802 278.571 220.04C278.571 274.325 278.492 276.746 276.667 279.246C274.96 281.587 272.341 283.809 270.794 284.167C267.817 284.841 265.04 284.563 263.056 283.413Z" fill="url(#paint3_linear)"/>
<path d="M198.214 283.333C197.341 283.135 195.198 282.976 193.492 282.976C187.302 282.897 185.079 280.675 183.016 272.421C182.341 269.802 181.706 266.31 181.587 264.683C181.23 260.159 181.151 31.1508 181.508 27.9762C181.667 26.4683 182.143 24.127 182.54 22.8175C182.976 21.5079 183.413 19.5635 183.571 18.4524C184.167 14.0873 187.976 8.92858 190.317 9.20635C192.302 9.44445 192.897 10.9127 193.056 15.7143C193.135 18.0952 193.413 20.6746 193.651 21.4286C193.929 22.3413 194.048 36.0317 194.048 62.3413C194.048 106.587 193.889 104.008 196.944 108.214C199.325 111.468 201.349 114.881 202.5 117.698C204.484 122.381 204.563 124.524 204.563 176.19C204.563 211.706 204.683 224.484 205.04 225.794C205.317 226.786 205.516 228.929 205.516 230.556C205.516 232.183 205.714 234.603 205.952 235.913C206.151 237.222 206.349 238.889 206.349 239.603C206.349 240.357 206.984 242.381 207.778 244.167C209.048 246.984 209.524 247.619 211.349 248.889C213.175 250.198 213.968 250.476 217.421 250.992C219.643 251.31 222.579 251.587 223.968 251.587C226.27 251.587 232.103 252.579 235.119 253.492C237.698 254.286 240.119 255.714 241.587 257.341L243.175 259.008L243.452 263.333C243.81 268.413 243.413 278.968 242.817 280.278C242.619 280.754 241.667 281.706 240.754 282.341L239.087 283.532L219.444 283.571C208.651 283.611 199.087 283.492 198.214 283.333Z" fill="url(#paint4_linear)"/>
<defs>
<linearGradient id="paint0_linear" x1="346.428" y1="131.022" x2="346.428" y2="286.469" gradientUnits="userSpaceOnUse">
<stop offset="0.432292" stop-color="#C85050"/>
<stop offset="1"/>
</linearGradient>
<linearGradient id="paint1_linear" x1="49.7478" y1="119.444" x2="49.7478" y2="284.777" gradientUnits="userSpaceOnUse">
<stop offset="0.432292" stop-color="#C85050"/>
<stop offset="1"/>
</linearGradient>
<linearGradient id="paint2_linear" x1="136.292" y1="37.546" x2="136.292" y2="284.524" gradientUnits="userSpaceOnUse">
<stop offset="0.432292" stop-color="#C85050"/>
<stop offset="1"/>
</linearGradient>
<linearGradient id="paint3_linear" x1="262.767" y1="33.7302" x2="262.767" y2="284.529" gradientUnits="userSpaceOnUse">
<stop offset="0.432292" stop-color="#C85050"/>
<stop offset="1"/>
</linearGradient>
<linearGradient id="paint4_linear" x1="212.432" y1="9.1956" x2="212.432" y2="283.579" gradientUnits="userSpaceOnUse">
<stop offset="0.432292" stop-color="#C85050"/>
<stop offset="1"/>
</linearGradient>
</defs>
</svg>
